<svg id="Layer_1" data-name="Layer 1" xmlns="http://www.w3.org/2000/svg" xmlns:xlink="http://www.w3.org/1999/xlink" viewBox="0 0 379.39 396.92"><defs><style>.cls-1,.cls-2{stroke-miterlimit:10;}.cls-1{stroke-width:15.72px;fill:url(#linear-gradient);stroke:url(#linear-gradient-2);}.cls-2{stroke-width:14px;fill:url(#linear-gradient-3);stroke:url(#linear-gradient-4);}</style><linearGradient id="linear-gradient" x1="19.03" y1="259.37" x2="140.63" y2="137.78" gradientUnits="userSpaceOnUse"><stop offset="0" stop-color="#cce0f4"/><stop offset="0.02" stop-color="#ccdbf3"/><stop offset="0.5" stop-color="#d17de0"/><stop offset="0.84" stop-color="#d541d5"/><stop offset="0.99" stop-color="#d62ad0"/></linearGradient><linearGradient id="linear-gradient-2" x1="11.18" y1="267.23" x2="148.49" y2="129.92" xlink:href="#linear-gradient"/><linearGradient id="linear-gradient-3" x1="84.22" y1="418.7" x2="408.71" y2="94.22" xlink:href="#linear-gradient"/><linearGradient id="linear-gradient-4" x1="78.32" y1="423.97" x2="413.34" y2="88.95" xlink:href="#linear-gradient"/></defs><rect class="cls-1" x="40.75" y="116.06" width="78.17" height="165.02"/><path class="cls-2" d="M222.5,292.94H300V379H76.14l37.31,68.88H343c6-.35,45-3.29,71.75-37.31,25.39-32.23,21-68.35,20.09-74.62a169.69,169.69,0,0,0-34.44-54.53A165.4,165.4,0,0,0,371,256.81a165.54,165.54,0,0,0,30.49-25.35,169.69,169.69,0,0,0,34.44-54.53c.87-6.27,5.3-42.39-20.09-74.62-26.79-34-65.74-37-71.75-37.31H114.49L77.18,133.88H301V220H223.55Z" transform="translate(-64.38 -58)"/></svg>