<svg id="Layer_1" data-name="Layer 1" xmlns="http://www.w3.org/2000/svg" xmlns:xlink="http://www.w3.org/1999/xlink" viewBox="0 0 379.39 396.92"><defs><style>.cls-1,.cls-2{stroke:#000;stroke-miterlimit:10;}.cls-1{stroke-width:15.72px;fill:url(#linear-gradient);}.cls-2{stroke-width:14px;fill:url(#linear-gradient-2);}</style><linearGradient id="linear-gradient" x1="250.61" y1="45.37" x2="165.08" y2="122.1" gradientUnits="userSpaceOnUse"><stop offset="0" stop-color="#cce0f4"/><stop offset="0.11" stop-color="#bfd1e4"/><stop offset="0.33" stop-color="#9cabb9"/><stop offset="0.64" stop-color="#646d74"/><stop offset="1" stop-color="#1d1d1b"/></linearGradient><linearGradient id="linear-gradient-2" x1="359.84" y1="153.37" x2="274.31" y2="230.1" xlink:href="#linear-gradient"/></defs><rect class="cls-1" x="40.75" y="116.06" width="78.17" height="165.02"/><path class="cls-2" d="M222.5,292.94H300V379H76.14l37.31,68.88H343c6-.35,45-3.29,71.75-37.31,25.39-32.23,21-68.35,20.09-74.62a169.69,169.69,0,0,0-34.44-54.53A165.4,165.4,0,0,0,371,256.81a165.54,165.54,0,0,0,30.49-25.35,169.69,169.69,0,0,0,34.44-54.53c.87-6.27,5.3-42.39-20.09-74.62-26.79-34-65.74-37-71.75-37.31H114.49L77.18,133.88H301V220H223.55Z" transform="translate(-64.38 -58)"/></svg>